<svg xmlns="http://www.w3.org/2000/svg" viewBox="0 0 480 240"><path fill="#0A9600" d="M180.5 112.6v30h-10.9v-30h-11.1v-9.5h33.1v9.5h-11.1zM217.1 130.7h-17.4c.3 3.3 2.3 4.7 5 4.7 2.6 0 4.7-.6 7.7-2.1l3.9 6.5c-3.7 2.1-7.4 3.4-12.1 3.4-8.9 0-13.8-6.3-13.8-15.4 0-10.2 5.8-15.5 13.5-15.5 8.1 0 13.2 5.4 13.2 16.4v2zm-13.4-10.9c-2.3 0-3.6 1.6-3.9 4.5h8.5c-.6-3-1.7-4.5-4.6-4.5zM236 143.2c-8.7 0-13.9-5.5-13.9-15.5 0-9.1 4.6-15.3 14.1-15.3 5.6 0 8.8 2.6 11.4 6.8l-7 5.3c-1.4-2.6-2.4-3.8-4.6-3.8-2.6 0-3.9 2.6-3.9 7.3 0 4.7 1.4 7.1 4.2 7.1 1.9 0 3.3-1.1 5.1-3.8l6.4 5c-3.4 4.9-6.6 6.9-11.8 6.9zM270.6 142.6v-16.8c0-3.8-1.3-4.9-3.4-4.9-2.1 0-3.4 1-3.4 4.7v16.9h-10.2v-37.1l10.2-4.1v13.5c1.9-1.4 3.9-2.6 7.4-2.6 6.5 0 9.6 4.3 9.6 12.1v18.1h-10.2z"/><path d="M305.1 143.2c-11.7 0-18-8.7-18-20.4 0-12.7 7.4-20.4 18.1-20.4 9.7 0 13.5 4.2 16.2 11.6l-9.9 3.9c-1.4-3.7-2.8-6-6.4-6-4.6 0-6.5 4.6-6.5 10.8 0 6 1.9 10.8 6.7 10.8 3.4 0 4.9-1.9 7.1-5.6l9.3 4.9c-2.8 5.4-7.2 10.4-16.6 10.4zM346.5 124.1c-1.3-1.4-2.8-2.5-4.7-2.5-2.5 0-4 1.2-4 4.8v16.1h-10.2v-29.6h10.2v2.1c1.7-1.7 3.7-2.8 6.3-2.8 2.1 0 3.6.5 4.8 1.2l-2.4 10.7zM370.7 142.6v-2c-1.8 1.4-3.9 2.6-7.4 2.6-6.5 0-9.6-4.3-9.6-12.1V113h10.2v16.8c0 3.8 1.3 4.9 3.4 4.9 2.1 0 3.4-1 3.4-4.7v-16.9h10.2v29.6h-10.2zM405.2 142.6v-16.8c0-3.8-1.3-4.9-3.4-4.9-2.1 0-3.4 1-3.4 4.7v16.9h-10.2v-29.6h10.2v2c1.9-1.4 3.9-2.6 7.4-2.6 6.5 0 9.6 4.3 9.6 12.1v18.1h-10.2zM435.2 143.2c-8.7 0-13.9-5.5-13.9-15.5 0-9.1 4.6-15.3 14.1-15.3 5.6 0 8.8 2.6 11.4 6.8l-7 5.3c-1.4-2.6-2.4-3.8-4.6-3.8-2.6 0-3.9 2.6-3.9 7.3 0 4.7 1.4 7.1 4.2 7.1 1.9 0 3.3-1.1 5.1-3.8l6.4 5c-3.3 4.9-6.6 6.9-11.8 6.9zM469.8 142.6v-16.8c0-3.8-1.3-4.9-3.4-4.9-2.1 0-3.4 1-3.4 4.7v16.9h-10.2v-37.1l10.2-4.1v13.5c1.9-1.4 3.9-2.6 7.4-2.6 6.5 0 9.6 4.3 9.6 12.1v18.1h-10.2z"/><g fill="#0A9600"><path d="M0 86v23h23v45h22v-45h23V86M90 131v-22H68v45h67v-23M90 86h45v23H90z"/></g></svg>